<svg xmlns="http://www.w3.org/2000/svg" version="1.1" xmlns:xlink="http://www.w3.org/1999/xlink" xmlns:svgjs="http://svgjs.dev/svgjs" width="1440" height="560" preserveAspectRatio="none" viewBox="0 0 1440 560"><g mask="url(&quot;#SvgjsMask1002&quot;)" fill="none"><rect width="1440" height="560" x="0" y="0" fill="url(&quot;#SvgjsLinearGradient1003&quot;)"></rect><path d="M1440 0L1257.34 0L1440 0.05z" fill="rgba(255, 255, 255, .1)"></path><path d="M1257.34 0L1440 0.05L1440 38.57L763.8199999999999 0z" fill="rgba(255, 255, 255, .075)"></path><path d="M763.82 0L1440 38.57L1440 61.58L495.51000000000005 0z" fill="rgba(255, 255, 255, .05)"></path><path d="M495.51 0L1440 61.58L1440 174.98000000000002L215.14999999999998 0z" fill="rgba(255, 255, 255, .025)"></path><path d="M0 560L676.6 560L0 488.68z" fill="rgba(0, 0, 0, .1)"></path><path d="M0 488.68L676.6 560L827.63 560L0 397.15z" fill="rgba(0, 0, 0, .075)"></path><path d="M0 397.15L827.63 560L834.2 560L0 237.86999999999998z" fill="rgba(0, 0, 0, .05)"></path><path d="M0 237.87L834.2 560L849.74 560L0 167.72z" fill="rgba(0, 0, 0, .025)"></path></g><defs><mask id="SvgjsMask1002"><rect width="1440" height="560" fill="#ffffff"></rect></mask><linearGradient x1="15.28%" y1="-39.29%" x2="84.72%" y2="139.29%" gradientUnits="userSpaceOnUse" id="SvgjsLinearGradient1003"><stop stop-color="#0e2a47" offset="0"></stop><stop stop-color="#00459e" offset="1"></stop></linearGradient></defs></svg>